<svg xmlns="http://www.w3.org/2000/svg" viewBox="0 0 24 24">
  <path fill="#FB542B" d="M20.94 7.66l-1.1-1.08.6-.76a.45.45 0 00-.69-.57l-.6.75-.7-.68a.45.45 0 00-.63 0L12 10.16 6.18 5.32a.45.45 0 00-.63 0l-.7.68-.6-.75a.45.45 0 00-.69.57l.6.76-1.1 1.08A4.05 4.05 0 002 10.7v2.16c0 1.87 1.06 4.21 3.15 6.6C7.17 21.76 9.25 22.5 12 22.5s4.83-.74 6.85-3.04C20.94 17.07 22 14.73 22 12.86V10.7a4.05 4.05 0 00-1.06-3.04zM15.5 13.5c-.45 1.53-1.62 2.7-3.5 2.7s-3.05-1.17-3.5-2.7l-.4-1.5h7.8l-.4 1.5z"/>
</svg>
