<svg xmlns="http://www.w3.org/2000/svg" viewBox="0 0 24 24">
  <circle cx="12" cy="12" r="11" fill="#DE5833"/>
  <ellipse cx="12" cy="13" rx="5.5" ry="6" fill="#F8C636"/>
  <path fill="#2D1A0E" d="M9 11.5a1.25 1.25 0 100-2.5 1.25 1.25 0 000 2.5zm6 0a1.25 1.25 0 100-2.5 1.25 1.25 0 000 2.5z"/>
  <path fill="#CC4E23" d="M12 17c-1.1 0-2-.6-2.5-1.5h5c-.5.9-1.4 1.5-2.5 1.5z"/>
  <circle cx="9" cy="10.5" r="0.4" fill="white"/>
  <circle cx="15" cy="10.5" r="0.4" fill="white"/>
  <ellipse cx="12" cy="7.5" rx="3" ry="2" fill="#F8C636"/>
  <ellipse cx="12" cy="7" rx="1.5" ry="1" fill="#E8A800"/>
</svg>
